<?xml version="1.0" encoding="utf-8"?><svg viewBox="0 0 68 81" xmlns="http://www.w3.org/2000/svg" xmlns:xlink="http://www.w3.org/1999/xlink"><style>:root>svg{display:none}:root>svg:target{display:block}</style><svg viewBox="0 0 68 67" id="instruction" xmlns="http://www.w3.org/2000/svg"><path d="M0 66.5h68M35.5 58V0M.5 24.5l35 33.5 32-33.5"/></svg><svg viewBox="0 0 68 81" id="place" xmlns="http://www.w3.org/2000/svg"><path d="M67.462 33.98c0 4.556-2.068 9.704-5.237 14.903-3.162 5.188-7.386 10.371-11.622 14.982-4.234 4.608-8.47 8.634-11.648 11.508a173.522 173.522 0 0 1-3.838 3.374c-.463.394-.827.698-1.074.904l-.062.052-.062-.052c-.248-.206-.611-.51-1.074-.904-.926-.789-2.25-1.937-3.838-3.374-3.178-2.874-7.414-6.9-11.648-11.508-4.236-4.61-8.46-9.794-11.623-14.982C2.568 43.684.5 38.535.5 33.981.5 15.49 15.49.5 33.98.5c18.492 0 33.482 14.99 33.482 33.48Z"/><path d="M25.093 46.955 34.6 22.242l9.505 24.713M27.895 38.851h13.406"/></svg><svg viewBox="0 0 67 67" id="play_1" xmlns="http://www.w3.org/2000/svg"><circle cx="33.5" cy="33.5" r="33"/><path d="M25.96 20.44 48.58 33.5 25.96 46.56V20.44Z"/></svg></svg>