<?xml version="1.0" encoding="utf-8"?><svg viewBox="0 0 68 81" xmlns="http://www.w3.org/2000/svg" xmlns:xlink="http://www.w3.org/1999/xlink"><style>:root>svg{display:none}:root>svg:target{display:block}</style><svg viewBox="0 0 68 59" id="dose" xmlns="http://www.w3.org/2000/svg"><path d="M59.625 1.293H1v50.25"/><path d="M9.875 8.972H67.5v49.25H9.875z"/></svg><svg viewBox="0 0 67 67" id="effect" xmlns="http://www.w3.org/2000/svg"><circle cx="32.882" cy="33.471" r="24.479"/><path d="M33.029 66.942V0M66.942 34.029H0"/></svg><svg viewBox="0 0 30 30" id="info" xmlns="http://www.w3.org/2000/svg"><circle cx="15" cy="15" r="14.5"/><path d="M14.624 10.648c-.384 0-.688-.112-.912-.336-.224-.224-.336-.512-.336-.864 0-.405.128-.741.384-1.008s.597-.4 1.024-.4c.427 0 .752.117.976.352.224.224.336.507.336.848 0 .427-.128.768-.384 1.024s-.613.384-1.072.384h-.016Zm-.848 2.976-1.136-.304v-1.072l2.928-.352h.032l.448.32v7.696l1.072.128V21h-4.464v-.96l1.12-.144v-6.272Z"/></svg><svg viewBox="0 0 68 67" id="instruction" xmlns="http://www.w3.org/2000/svg"><path d="M0 66.5h68M35.5 58V0M.5 24.5l35 33.5 32-33.5"/></svg><svg viewBox="0 0 68 81" id="place" xmlns="http://www.w3.org/2000/svg"><path d="M67.462 33.98c0 4.556-2.068 9.704-5.237 14.903-3.162 5.188-7.386 10.371-11.622 14.982-4.234 4.608-8.47 8.634-11.648 11.508a173.522 173.522 0 0 1-3.838 3.374c-.463.394-.827.698-1.074.904l-.062.052-.062-.052c-.248-.206-.611-.51-1.074-.904-.926-.789-2.25-1.937-3.838-3.374-3.178-2.874-7.414-6.9-11.648-11.508-4.236-4.61-8.46-9.794-11.623-14.982C2.568 43.684.5 38.535.5 33.981.5 15.49 15.49.5 33.98.5c18.492 0 33.482 14.99 33.482 33.48Z"/><path d="M25.093 46.955 34.6 22.242l9.505 24.713M27.895 38.851h13.406"/></svg><svg viewBox="0 0 67 67" id="play_1" xmlns="http://www.w3.org/2000/svg"><circle cx="33.5" cy="33.5" r="33"/><path d="M25.96 20.44 48.58 33.5 25.96 46.56V20.44Z"/></svg><svg viewBox="0 0 68 58" id="tablet" xmlns="http://www.w3.org/2000/svg"><path d="M67 55.008v-53h-9"/><rect x=".5" y=".508" width="28.776" height="56" rx="14.388"/><path d="M0 27.582h28.925M42.646 33.577l11-11M53.646 33.438l-11-11"/></svg></svg>